<?xml version="1.0" encoding="utf-8"?>
<!-- Generator: Adobe Illustrator 27.9.0, SVG Export Plug-In . SVG Version: 6.00 Build 0)  -->
<svg version="1.1" id="Layer_1" xmlns="http://www.w3.org/2000/svg" xmlns:xlink="http://www.w3.org/1999/xlink" x="0px" y="0px"
	 viewBox="0 0 403 418" style="enable-background:new 0 0 403 418;" xml:space="preserve">
<style type="text/css">
	.st0{fill:#676767;}
</style>
<path class="st0" d="M200,31c103.5,0,187.5,84,187.5,187.5S303.5,406,200,406S12.5,322,12.5,218.5S96.5,31,200,31z M249.5,135.6h-27
	c-12,0-23.4,4.5-31.9,12.6s-13.2,19-13.2,30.3v25.8h-27v34.3h27v68.7h36v-68.7h27l9-34.3h-36v-25.8c0-2.3,0.9-4.5,2.7-6.1
	c1.7-1.6,4-2.5,6.4-2.5h27V135.6z"/>
</svg>
