<svg width="148" height="23" viewBox="0 0 148 23" fill="none" xmlns="http://www.w3.org/2000/svg">
<path d="M11.4602 6.30682C11.3864 6.00568 11.2699 5.74148 11.1108 5.5142C10.9517 5.28125 10.7528 5.08523 10.5142 4.92614C10.2813 4.76136 10.0085 4.6392 9.69602 4.55966C9.3892 4.47443 9.05114 4.43182 8.68182 4.43182C7.88636 4.43182 7.20739 4.62216 6.64489 5.00284C6.08807 5.38352 5.66193 5.93182 5.36648 6.64773C5.0767 7.36364 4.93182 8.22727 4.93182 9.23864C4.93182 10.2614 5.07102 11.1364 5.34943 11.8636C5.62784 12.5909 6.04261 13.1477 6.59375 13.5341C7.14489 13.9205 7.82955 14.1136 8.64773 14.1136C9.36932 14.1136 9.96875 14.0085 10.446 13.7983C10.929 13.5881 11.2898 13.2898 11.5284 12.9034C11.767 12.517 11.8864 12.0625 11.8864 11.5398L12.7045 11.625H8.71591V8.25H16.4545V10.6705C16.4545 12.2614 16.1165 13.6222 15.4403 14.7528C14.7699 15.8778 13.8438 16.7415 12.6619 17.3438C11.4858 17.9403 10.1364 18.2386 8.61364 18.2386C6.91477 18.2386 5.4233 17.8778 4.1392 17.1562C2.85511 16.4347 1.85227 15.4062 1.13068 14.071C0.414773 12.7358 0.0568182 11.1477 0.0568182 9.30682C0.0568182 7.86364 0.275568 6.58523 0.713068 5.47159C1.15625 4.35795 1.76989 3.41761 2.55398 2.65057C3.33807 1.87784 4.24432 1.29545 5.27273 0.903408C6.30114 0.505681 7.40341 0.306818 8.57955 0.306818C9.61364 0.306818 10.5739 0.454545 11.4602 0.75C12.3523 1.03977 13.1392 1.45454 13.821 1.99432C14.5085 2.52841 15.0625 3.16193 15.483 3.89489C15.9034 4.62784 16.1591 5.43182 16.25 6.30682H11.4602ZM24.4368 0.545454V18H19.7322V0.545454H24.4368ZM34.1065 18.2386C32.7088 18.2386 31.5043 17.9716 30.4929 17.4375C29.4872 16.8977 28.7116 16.125 28.1662 15.1193C27.6264 14.108 27.3565 12.8977 27.3565 11.4886C27.3565 10.1364 27.6293 8.95455 28.1747 7.94318C28.7202 6.93182 29.4901 6.14489 30.4844 5.58239C31.4787 5.01989 32.652 4.73864 34.0043 4.73864C34.9929 4.73864 35.8878 4.89205 36.6889 5.19886C37.4901 5.50568 38.1747 5.9517 38.7429 6.53693C39.3111 7.11648 39.7486 7.82102 40.0554 8.65057C40.3622 9.48011 40.5156 10.4148 40.5156 11.4545V12.5455H28.8224V9.95455H36.1861C36.1804 9.57955 36.0838 9.25 35.8963 8.96591C35.7145 8.67614 35.4673 8.4517 35.1548 8.29261C34.848 8.12784 34.4986 8.04545 34.1065 8.04545C33.7259 8.04545 33.3764 8.12784 33.0582 8.29261C32.7401 8.4517 32.4844 8.6733 32.2912 8.95739C32.1037 9.24148 32.0043 9.57386 31.9929 9.95455V12.75C31.9929 13.1705 32.081 13.5455 32.2571 13.875C32.4332 14.2045 32.6861 14.4631 33.0156 14.6506C33.3452 14.8381 33.7429 14.9318 34.2088 14.9318C34.5327 14.9318 34.8281 14.8864 35.0952 14.7955C35.3679 14.7045 35.6009 14.5739 35.794 14.4034C35.9872 14.2273 36.1293 14.017 36.2202 13.7727H40.5156C40.3679 14.6818 40.0185 15.4716 39.4673 16.142C38.9162 16.8068 38.1861 17.3239 37.277 17.6932C36.3736 18.0568 35.3168 18.2386 34.1065 18.2386ZM48.1399 10.6364V18H43.4354V4.90909H47.9013V7.39773H48.0376C48.3217 6.56818 48.8217 5.91761 49.5376 5.44602C50.2592 4.97443 51.1001 4.73864 52.0604 4.73864C52.9865 4.73864 53.7905 4.9517 54.4723 5.37784C55.1598 5.7983 55.6911 6.37784 56.0661 7.11648C56.4467 7.85511 56.6342 8.69886 56.6286 9.64773V18H51.924V10.6364C51.9297 9.98864 51.7649 9.48011 51.4297 9.1108C51.1001 8.74148 50.6399 8.55682 50.049 8.55682C49.6626 8.55682 49.3246 8.64205 49.0348 8.8125C48.7507 8.97727 48.532 9.21591 48.3786 9.52841C48.2251 9.83523 48.1456 10.2045 48.1399 10.6364ZM69.2919 6C69.2464 5.43182 69.0334 4.98864 68.6527 4.67045C68.2777 4.35227 67.7067 4.19318 66.9396 4.19318C66.451 4.19318 66.0504 4.25284 65.7379 4.37216C65.4311 4.4858 65.2038 4.64205 65.0561 4.84091C64.9084 5.03977 64.8317 5.26705 64.826 5.52273C64.8146 5.73295 64.8516 5.9233 64.9368 6.09375C65.0277 6.25852 65.1697 6.40909 65.3629 6.54545C65.5561 6.67614 65.8033 6.79545 66.1044 6.90341C66.4055 7.01136 66.7635 7.10795 67.1783 7.19318L68.6101 7.5C69.576 7.70455 70.4027 7.97443 71.0902 8.30966C71.7777 8.64489 72.3402 9.03977 72.7777 9.49432C73.2152 9.94318 73.5362 10.4489 73.7408 11.0114C73.951 11.5739 74.0589 12.1875 74.0646 12.8523C74.0589 14 73.772 14.9716 73.2038 15.767C72.6357 16.5625 71.8232 17.1676 70.7663 17.5824C69.7152 17.9972 68.451 18.2045 66.9737 18.2045C65.4567 18.2045 64.1328 17.9801 63.0021 17.5312C61.8771 17.0824 61.0021 16.392 60.3771 15.4602C59.7578 14.5227 59.4453 13.3239 59.4396 11.8636H63.9396C63.968 12.3977 64.1016 12.8466 64.3402 13.2102C64.5788 13.5739 64.9141 13.8494 65.3459 14.0369C65.7834 14.2244 66.3033 14.3182 66.9055 14.3182C67.4112 14.3182 67.8345 14.2557 68.1754 14.1307C68.5163 14.0057 68.7749 13.8324 68.951 13.6108C69.1271 13.3892 69.218 13.1364 69.2237 12.8523C69.218 12.5852 69.13 12.3523 68.9595 12.1534C68.7947 11.9489 68.522 11.767 68.1413 11.608C67.7607 11.4432 67.2464 11.2898 66.5987 11.1477L64.8601 10.7727C63.3146 10.4375 62.0959 9.87784 61.2038 9.09375C60.3175 8.30398 59.8771 7.22727 59.8828 5.86364C59.8771 4.75568 60.1726 3.78693 60.7692 2.95739C61.3714 2.12216 62.2038 1.47159 63.2663 1.00568C64.3345 0.539772 65.5589 0.306818 66.9396 0.306818C68.3487 0.306818 69.5675 0.542613 70.5959 1.0142C71.6243 1.4858 72.4169 2.15057 72.9737 3.00852C73.5362 3.8608 73.8203 4.85795 73.826 6H69.2919ZM76.9354 22.9091V4.90909H81.6058V7.19318H81.7081C81.8786 6.75 82.1286 6.34375 82.4581 5.97443C82.7876 5.59943 83.1967 5.30114 83.6854 5.07954C84.174 4.85227 84.7422 4.73864 85.3899 4.73864C86.2536 4.73864 87.0746 4.96875 87.853 5.42898C88.6371 5.8892 89.2734 6.61364 89.7621 7.60227C90.2564 8.59091 90.5036 9.875 90.5036 11.4545C90.5036 12.9659 90.2678 14.2187 89.7962 15.2131C89.3303 16.2074 88.7053 16.9489 87.9212 17.4375C87.1428 17.9261 86.2876 18.1705 85.3558 18.1705C84.7422 18.1705 84.1939 18.071 83.7109 17.8722C83.2337 17.6676 82.8246 17.392 82.4837 17.0455C82.1484 16.6932 81.8899 16.2955 81.7081 15.8523H81.6399V22.9091H76.9354ZM81.5376 11.4545C81.5376 12.0909 81.62 12.642 81.7848 13.108C81.9553 13.5682 82.1939 13.9261 82.5007 14.1818C82.8132 14.4318 83.1854 14.5568 83.6172 14.5568C84.049 14.5568 84.4155 14.4347 84.7166 14.1903C85.0234 13.9403 85.2564 13.5852 85.4155 13.125C85.5803 12.6591 85.6626 12.1023 85.6626 11.4545C85.6626 10.8068 85.5803 10.2528 85.4155 9.79261C85.2564 9.3267 85.0234 8.97159 84.7166 8.72727C84.4155 8.47727 84.049 8.35227 83.6172 8.35227C83.1854 8.35227 82.8132 8.47727 82.5007 8.72727C82.1939 8.97159 81.9553 9.3267 81.7848 9.79261C81.62 10.2528 81.5376 10.8068 81.5376 11.4545ZM97.1222 18.2045C96.2869 18.2045 95.5483 18.0682 94.9062 17.7955C94.2699 17.517 93.7699 17.0966 93.4062 16.5341C93.0426 15.9716 92.8608 15.2557 92.8608 14.3864C92.8608 13.6705 92.983 13.0597 93.2273 12.554C93.4716 12.0426 93.8125 11.625 94.25 11.3011C94.6875 10.9773 95.196 10.7301 95.7756 10.5597C96.3608 10.3892 96.9915 10.2784 97.6676 10.2273C98.4006 10.1705 98.9886 10.1023 99.4318 10.0227C99.8807 9.9375 100.205 9.82102 100.403 9.6733C100.602 9.51989 100.702 9.31818 100.702 9.06818V9.03409C100.702 8.69318 100.571 8.43182 100.31 8.25C100.048 8.06818 99.7131 7.97727 99.304 7.97727C98.8551 7.97727 98.4886 8.0767 98.2045 8.27557C97.9261 8.46875 97.7585 8.76705 97.7017 9.17045H93.3722C93.429 8.375 93.6818 7.64205 94.1307 6.97159C94.5852 6.29545 95.2472 5.75568 96.1165 5.35227C96.9858 4.94318 98.071 4.73864 99.3722 4.73864C100.31 4.73864 101.151 4.84943 101.895 5.07102C102.639 5.28693 103.273 5.59091 103.795 5.98295C104.318 6.36932 104.716 6.82386 104.989 7.34659C105.267 7.86364 105.406 8.42614 105.406 9.03409V18H101.009V16.1591H100.906C100.645 16.6477 100.327 17.0426 99.9517 17.3438C99.5824 17.6449 99.1591 17.8636 98.6818 18C98.2102 18.1364 97.6903 18.2045 97.1222 18.2045ZM98.6562 15.2386C99.0142 15.2386 99.3494 15.1648 99.6619 15.017C99.9801 14.8693 100.239 14.6562 100.438 14.3778C100.636 14.0994 100.736 13.7614 100.736 13.3636V12.2727C100.611 12.3239 100.477 12.3722 100.335 12.4176C100.199 12.4631 100.051 12.5057 99.892 12.5455C99.7386 12.5852 99.5739 12.6222 99.3977 12.6562C99.2273 12.6903 99.0483 12.7216 98.8608 12.75C98.4972 12.8068 98.1989 12.9006 97.9659 13.0312C97.7386 13.1562 97.5682 13.3125 97.4545 13.5C97.3466 13.6818 97.2926 13.8864 97.2926 14.1136C97.2926 14.4773 97.4205 14.7557 97.6761 14.9489C97.9318 15.142 98.2585 15.2386 98.6562 15.2386ZM108.654 18V4.90909H113.222V7.39773H113.359C113.597 6.47727 113.975 5.80398 114.492 5.37784C115.015 4.9517 115.626 4.73864 116.325 4.73864C116.529 4.73864 116.731 4.75568 116.93 4.78977C117.134 4.81818 117.33 4.8608 117.518 4.91761V8.93182C117.285 8.85227 116.998 8.79261 116.657 8.75284C116.316 8.71307 116.023 8.69318 115.779 8.69318C115.319 8.69318 114.904 8.7983 114.535 9.00852C114.171 9.21307 113.884 9.50284 113.674 9.87784C113.464 10.2472 113.359 10.6818 113.359 11.1818V18H108.654ZM125.583 18.2386C124.185 18.2386 122.981 17.9716 121.969 17.4375C120.964 16.8977 120.188 16.125 119.643 15.1193C119.103 14.108 118.833 12.8977 118.833 11.4886C118.833 10.1364 119.106 8.95455 119.651 7.94318C120.197 6.93182 120.967 6.14489 121.961 5.58239C122.955 5.01989 124.129 4.73864 125.481 4.73864C126.469 4.73864 127.364 4.89205 128.165 5.19886C128.967 5.50568 129.651 5.9517 130.219 6.53693C130.788 7.11648 131.225 7.82102 131.532 8.65057C131.839 9.48011 131.992 10.4148 131.992 11.4545V12.5455H120.299V9.95455H127.663C127.657 9.57955 127.56 9.25 127.373 8.96591C127.191 8.67614 126.944 8.4517 126.631 8.29261C126.325 8.12784 125.975 8.04545 125.583 8.04545C125.202 8.04545 124.853 8.12784 124.535 8.29261C124.217 8.4517 123.961 8.6733 123.768 8.95739C123.58 9.24148 123.481 9.57386 123.469 9.95455V12.75C123.469 13.1705 123.558 13.5455 123.734 13.875C123.91 14.2045 124.163 14.4631 124.492 14.6506C124.822 14.8381 125.219 14.9318 125.685 14.9318C126.009 14.9318 126.305 14.8864 126.572 14.7955C126.844 14.7045 127.077 14.5739 127.271 14.4034C127.464 14.2273 127.606 14.017 127.697 13.7727H131.992C131.844 14.6818 131.495 15.4716 130.944 16.142C130.393 16.8068 129.663 17.3239 128.754 17.6932C127.85 18.0568 126.793 18.2386 125.583 18.2386ZM146.878 9.17045H142.548C142.526 8.90341 142.432 8.6733 142.267 8.48011C142.102 8.28693 141.889 8.1392 141.628 8.03693C141.372 7.92898 141.088 7.875 140.776 7.875C140.372 7.875 140.026 7.94886 139.736 8.09659C139.446 8.24432 139.304 8.45455 139.31 8.72727C139.304 8.92045 139.386 9.09943 139.557 9.2642C139.733 9.42898 140.071 9.55682 140.571 9.64773L143.23 10.125C144.571 10.3693 145.568 10.7812 146.222 11.3608C146.881 11.9347 147.213 12.7045 147.219 13.6705C147.213 14.6023 146.935 15.4119 146.384 16.0994C145.838 16.7812 145.091 17.3097 144.142 17.6847C143.199 18.054 142.122 18.2386 140.912 18.2386C138.912 18.2386 137.347 17.8295 136.216 17.0114C135.091 16.1932 134.463 15.1136 134.332 13.7727H139.003C139.065 14.1875 139.27 14.5085 139.616 14.7358C139.969 14.9574 140.412 15.0682 140.946 15.0682C141.378 15.0682 141.733 14.9943 142.011 14.8466C142.295 14.6989 142.44 14.4886 142.446 14.2159C142.44 13.9659 142.315 13.767 142.071 13.6193C141.832 13.4716 141.457 13.3523 140.946 13.2614L138.628 12.8523C137.293 12.6193 136.293 12.1761 135.628 11.5227C134.963 10.8693 134.634 10.0284 134.639 9C134.634 8.09091 134.872 7.32102 135.355 6.69034C135.844 6.05398 136.54 5.57102 137.443 5.24148C138.352 4.90625 139.429 4.73864 140.673 4.73864C142.565 4.73864 144.057 5.13068 145.148 5.91477C146.244 6.69886 146.821 7.78409 146.878 9.17045Z" fill="#D9D9D9"/>
</svg>
