<?xml version="1.0" encoding="utf-8"?>
<!-- Generator: Adobe Illustrator 27.9.0, SVG Export Plug-In . SVG Version: 6.00 Build 0)  -->
<svg version="1.1" id="Layer_1" xmlns="http://www.w3.org/2000/svg" xmlns:xlink="http://www.w3.org/1999/xlink" x="0px" y="0px"
	 viewBox="0 0 403 418" style="enable-background:new 0 0 403 418;" xml:space="preserve">
<style type="text/css">
	.st0{fill:#676767;}
</style>
<g>
	<path class="st0" d="M201,21.9c-103.5,0-187.6,83.9-187.7,187.3h0C13.3,312.7,97.2,396.8,200.7,397
		c103.5,0.2,187.7-83.7,187.9-187.2C388.7,106.2,304.7,22,201,21.9z M316.8,254.3c0,10.1-1.5,19.9-5.1,29.4
		c-8.8,23-26.3,35.1-49.9,39c-6.2,1-12.7,1.4-19,1.4c-29.2,0.2-58.5,0.2-87.8,0c-11.6-0.1-22.9-2-33.5-6.9
		c-21.1-9.6-31.8-26.9-35.2-49.2c-0.8-5.3-1-10.7-1.1-16c-0.1-14.2,0-28.5,0-42.7h0.3v0c0-17.4-0.8-34.8,0.2-52.1
		c1.4-23.1,10.8-42.2,32.2-53.7c11.4-6.1,23.7-8.6,36.5-8.7c31.1-0.2,62.2-0.2,93.4,0c10,0.1,19.9,1.7,29.3,5.4
		c23.1,9,35,26.8,38.7,50.6c0.8,5.4,1.1,10.9,1.1,16.4C316.9,196.3,316.8,225.3,316.8,254.3z"/>
	<path class="st0" d="M294.7,155.1c-2.2-19-14.3-32.6-32.8-36.8c-4.8-1.1-9.9-1.7-14.9-1.7c-15.4-0.2-30.8-0.1-46.1-0.1h0
		c0-0.1,0-0.2,0-0.4c-3,0-6-0.1-9,0c-15.2,0.3-30.5,0.1-45.7,1.2c-17.5,1.3-30.5,10.2-36.3,27.3c-2.2,6.4-3.3,13.4-3.4,20.2
		c-0.4,28.9-0.2,57.8-0.1,86.6c0,3.9,0.3,7.7,0.7,11.6c2.5,22,17.4,37,39.5,38.6c14.4,1,29,1.1,43.5,1.1c21.9-0.1,43.8,0,65.6-1.2
		c17.6-1,30.5-10.2,36.3-27.3c2.2-6.6,3.3-13.9,3.4-20.9c0.4-28.5,0.2-57,0.1-85.5C295.4,163.6,295.2,159.3,294.7,155.1z
		 M201.4,270.4c-33.9,0.1-61.3-26.8-61.5-60.5c-0.2-34,26.9-61.3,60.9-61.4v0c33.9-0.1,61.1,27.2,61.1,61.2
		C261.9,243.1,234.8,270.3,201.4,270.4z M262.3,160.9c-6.8,0-12.1-5.3-12.2-12c-0.1-6.8,5.5-12.3,12.4-12.2c6.7,0.1,12,5.5,12,12.2
		C274.4,155.5,269,160.9,262.3,160.9z"/>
	<path class="st0" d="M201.1,170.1c-21.7-0.2-39.4,17.3-39.5,39.1c-0.2,21.7,17.3,39.3,39.1,39.5c21.7,0.2,39.4-17.3,39.5-39.1
		C240.5,187.9,223,170.3,201.1,170.1z"/>
</g>
</svg>
